<svg width="943" height="375" viewBox="0 0 943 375" fill="none" xmlns="http://www.w3.org/2000/svg">
<path d="M624.63 250.45H624.5V227.45H619.62V258.45H624.05L641.05 235.45H641.13V258.45H646V227.45H641.58L624.63 250.45ZM652 231.85H661.3V258.42H666.17V231.85H675.47V227.42H652V231.85ZM600.61 254.43C597.678 254.257 594.922 252.97 592.906 250.833C590.891 248.695 589.769 245.868 589.769 242.93C589.769 239.993 590.891 237.166 592.906 235.028C594.922 232.89 597.678 231.603 600.61 231.43C602.37 231.406 604.113 231.78 605.708 232.525C607.303 233.27 608.709 234.365 609.82 235.73L613.23 232.94C611.697 231.069 609.764 229.564 607.573 228.536C605.383 227.508 602.99 226.983 600.57 227C591.27 227 584.18 234.09 584.18 242.95C584.18 251.81 591.27 258.89 600.57 258.89C603.026 258.891 605.452 258.348 607.672 257.298C609.893 256.248 611.852 254.719 613.41 252.82L610 250C608.862 251.4 607.424 252.525 605.791 253.292C604.159 254.059 602.374 254.448 600.57 254.43H600.61ZM514.69 241.77C515.856 241.222 516.84 240.35 517.523 239.257C518.205 238.165 518.559 236.899 518.54 235.61C518.54 231.18 514.77 227.42 509.24 227.42H496.8V258.42H509.86C515.86 258.42 520.05 254.21 520.05 249.34C520 247.686 519.459 246.084 518.498 244.737C517.537 243.389 516.198 242.357 514.65 241.77H514.69ZM501.69 231.63H509.22C509.79 231.603 510.359 231.691 510.893 231.89C511.428 232.088 511.916 232.394 512.329 232.787C512.742 233.18 513.07 233.653 513.295 234.177C513.52 234.701 513.635 235.265 513.635 235.835C513.635 236.406 513.52 236.97 513.295 237.494C513.07 238.018 512.742 238.491 512.329 238.884C511.916 239.277 511.428 239.582 510.893 239.781C510.359 239.98 509.79 240.068 509.22 240.04H501.69V231.63ZM509.88 254.21H501.69V244H509.88C511.23 244 512.525 244.537 513.479 245.491C514.434 246.446 514.97 247.74 514.97 249.09C514.97 250.44 514.434 251.735 513.479 252.69C512.525 253.644 511.23 254.18 509.88 254.18V254.21ZM579 237.38C579 231.85 574.57 227.38 568.59 227.38H556.19V258.38H561.07V247.35H568.59C574.61 247.35 579 242.92 579 237.38ZM568.59 242.92H561.07V231.85H568.59C569.337 231.819 570.082 231.938 570.782 232.202C571.481 232.466 572.119 232.869 572.659 233.386C573.198 233.903 573.628 234.524 573.921 235.211C574.214 235.898 574.366 236.638 574.366 237.385C574.366 238.133 574.214 238.872 573.921 239.56C573.628 240.247 573.198 240.868 572.659 241.385C572.119 241.902 571.481 242.305 570.782 242.569C570.082 242.832 569.337 242.952 568.59 242.92V242.92ZM549.59 253.99H532.09V244.56H545.6V240.13H532.13V231.85H549.13V227.42H527.26V258.42H549.63L549.59 253.99ZM482.8 235.39H482.89V258.39H487.76V227.39H483.33L466.42 250.39H466.28V227.39H461.41V258.39H465.84L482.8 235.39ZM406.24 250.23C405.04 252.66 403.58 254.3 400.62 254.3C399.752 254.293 398.889 254.176 398.05 253.95V258.2C399.064 258.604 400.149 258.798 401.24 258.77C405.58 258.77 408.54 256.25 410.67 251.55L421.52 227.42H416.52L408.91 244.73H408.82L399.47 227.42H394.07L406.43 249.92L406.24 250.23ZM432.24 244.91H447.51V258.42H452.38V227.42H447.51V240.48H432.31V227.42H427.43V258.42H432.31L432.24 244.91ZM703.75 254H686.26V244.57H699.76V240.14H686.26V231.86H703.26V227.43H681.39V258.43H703.75V254ZM717.75 258.43H722.62V231.85H731.92V227.42H708.45V231.85H717.75V258.43ZM519 278.42H512.8L498.85 293.48V278.42H494V309.42H498.87V300.12L503.74 294.8L513.93 309.42H519.93L507 291.26L519 278.42ZM475.49 295.73H475.4L466 278.42H460.6L473 300.92L472.82 301.23C471.62 303.66 470.16 305.3 467.19 305.3C466.322 305.292 465.459 305.174 464.62 304.95V309.2C465.635 309.601 466.72 309.795 467.81 309.77C472.15 309.77 475.12 307.25 477.25 302.55L488.1 278.42H483.1L475.49 295.73ZM927.61 275.1C932.04 275.1 934.79 272.1 934.79 268.45H931.07C931.023 269.335 930.638 270.167 929.995 270.776C929.353 271.385 928.501 271.724 927.615 271.724C926.73 271.724 925.878 271.385 925.235 270.776C924.593 270.167 924.208 269.335 924.16 268.45H920.44C920.42 272.09 923.16 275.1 927.59 275.1H927.61ZM417.61 291.48H402.29V278.42H397.42V309.42H402.29V295.91H417.57V309.42H422.44V278.42H417.57L417.61 291.48ZM440.75 278.42L428.35 309.42H433.35L436.45 301.42H450.18L453.28 309.42H458.46L446.06 278.42H440.75ZM438.19 297L443.19 284H443.27L448.27 297H438.19ZM936.32 278.4L919.4 301.4H919.27V278.4H914.4V309.4H918.82L935.82 286.4H935.9V309.4H940.78V278.4H936.32ZM530.75 301.4H530.61V278.4H525.74V309.4H530.17L547.17 286.4H547.26V309.4H552.13V278.4H547.7L530.75 301.4ZM829.93 278C827.802 277.95 825.684 278.325 823.702 279.103C821.72 279.881 819.914 281.047 818.388 282.533C816.862 284.018 815.649 285.793 814.818 287.754C813.987 289.714 813.556 291.821 813.55 293.95C813.55 302.81 820.63 309.89 829.93 309.89C839.23 309.89 846.32 302.81 846.32 293.95C846.32 285.09 839.23 278 829.93 278ZM829.93 305.46C827.651 305.46 825.424 304.784 823.529 303.518C821.634 302.252 820.158 300.452 819.286 298.347C818.415 296.241 818.187 293.924 818.632 291.689C819.078 289.454 820.176 287.402 821.788 285.791C823.4 284.18 825.454 283.084 827.689 282.641C829.924 282.197 832.241 282.427 834.346 283.3C836.451 284.174 838.249 285.652 839.514 287.548C840.778 289.443 841.452 291.672 841.45 293.95C841.457 295.463 841.163 296.962 840.586 298.361C840.009 299.759 839.16 301.029 838.089 302.097C837.017 303.165 835.744 304.009 834.344 304.582C832.943 305.154 831.443 305.442 829.93 305.43V305.46ZM758.36 278C749.06 278 741.97 285.09 741.97 293.95C741.97 302.81 749.06 309.89 758.36 309.89C767.66 309.89 774.74 302.81 774.74 293.95C774.734 291.821 774.303 289.714 773.473 287.754C772.642 285.793 771.428 284.018 769.903 282.533C768.377 281.047 766.57 279.881 764.588 279.103C762.606 278.325 760.489 277.95 758.36 278V278ZM758.36 305.46C756.081 305.462 753.852 304.788 751.956 303.523C750.06 302.258 748.582 300.459 747.709 298.354C746.836 296.248 746.607 293.931 747.051 291.695C747.495 289.46 748.593 287.406 750.204 285.795C751.816 284.183 753.87 283.085 756.105 282.641C758.341 282.197 760.658 282.426 762.763 283.299C764.869 284.172 766.668 285.65 767.933 287.546C769.198 289.442 769.872 291.671 769.87 293.95C769.877 295.462 769.584 296.961 769.007 298.358C768.431 299.756 767.583 301.026 766.512 302.093C765.442 303.161 764.17 304.006 762.771 304.579C761.371 305.152 759.872 305.441 758.36 305.43V305.46ZM853.36 309.46H858.23V282.85H873.3V278.42H853.37L853.36 309.46ZM884.04 301.46H883.91V278.46H879.04V309.46H883.47L900.47 286.46H900.56V309.46H905.43V278.46H901L884.04 301.46ZM785.7 287.73C785.34 302.56 783.04 305.22 780.16 305.22C779.332 305.207 778.511 305.059 777.73 304.78V309.21C778.628 309.647 779.613 309.872 780.61 309.87C786.41 309.87 790.04 305.87 790.48 287.73L790.61 282.86H801.61V309.43H806.48V278.43H785.93L785.7 287.73ZM618.65 282.86H628V309.43H632.87V282.85H642.17V278.42H618.66L618.65 282.86ZM579 301.45H578.86V278.45H574V309.45H578.43L595.43 286.45H595.52V309.45H600.39V278.45H595.96L579 301.45ZM703 278.45H697.29L689.8 289.65H689.71L682.23 278.45H676.43L686.61 293.33L675.54 309.45H681.25L689.62 296.91H689.71L698 309.42H703.81L692.73 293.16L703 278.45ZM653 295.59H666.51V291.16H653V282.88H670V278.45H648.09V309.45H670.45V305H653V295.59ZM730.11 291.51H714.79V278.42H709.92V309.42H714.79V295.91H730.07V309.42H734.94V278.42H730.07L730.11 291.51Z" fill="white"/>
<path d="M187.5 146.5C179.391 146.5 171.464 148.905 164.722 153.41C157.979 157.915 152.724 164.318 149.621 171.81C146.518 179.302 145.706 187.545 147.288 195.499C148.87 203.452 152.775 210.757 158.509 216.491C164.243 222.225 171.548 226.13 179.501 227.712C187.455 229.294 195.698 228.482 203.19 225.379C210.682 222.276 217.085 217.021 221.59 210.278C226.095 203.536 228.5 195.609 228.5 187.5C228.5 176.626 224.18 166.198 216.491 158.509C208.802 150.82 198.374 146.5 187.5 146.5ZM41.5 187.5C41.5 148.778 56.8821 111.643 84.2624 84.2624C111.643 56.8821 148.778 41.5 187.5 41.5V0C84 0 0 84 0 187.5C0 291 84 375 187.5 375V333.5C148.778 333.5 111.643 318.118 84.2624 290.738C56.8821 263.357 41.5 226.222 41.5 187.5V187.5ZM187.5 239.5C177.215 239.5 167.162 236.45 158.61 230.736C150.059 225.023 143.394 216.901 139.458 207.4C135.523 197.898 134.493 187.442 136.499 177.355C138.506 167.268 143.458 158.003 150.73 150.73C158.003 143.458 167.268 138.506 177.355 136.499C187.442 134.493 197.898 135.523 207.4 139.458C216.901 143.394 225.023 150.059 230.736 158.61C236.45 167.162 239.5 177.215 239.5 187.5H281C281 169.007 275.516 150.93 265.242 135.554C254.968 120.178 240.366 108.194 223.281 101.117C206.196 94.0405 187.396 92.1889 169.259 95.7966C151.122 99.4043 134.462 108.309 121.386 121.386C108.309 134.462 99.4043 151.122 95.7966 169.259C92.1889 187.396 94.0405 206.196 101.117 223.281C108.194 240.366 120.178 254.968 135.554 265.242C150.93 275.516 169.007 281 187.5 281V239.5ZM187.5 41.5V83C215.215 83 241.795 94.0098 261.393 113.607C280.99 133.205 292 159.785 292 187.5C292 215.215 280.99 241.795 261.393 261.393C241.795 280.99 215.215 292 187.5 292V333.5C226.222 333.5 263.357 318.118 290.738 290.738C318.118 263.357 333.5 226.222 333.5 187.5C333.5 148.778 318.118 111.643 290.738 84.2624C263.357 56.8821 226.222 41.5 187.5 41.5V41.5ZM453.72 138.5L405.13 86.27H397.5V187.5H418.81V130.5L450.74 164H456.74L488.67 130.48V187.48H509.98V86.31H502.3L453.72 138.5ZM550.92 147.58V87.5H529.62V188.69H537.86L600 127.39V187.5H621.3V86.31H613.06L550.92 147.58ZM687.05 105.7C698.12 105.7 707.99 111.7 714.47 121.54L729.47 107.04C724.622 100.317 718.251 94.8368 710.877 91.0494C703.504 87.262 695.339 85.2747 687.05 85.25C658.27 85.25 634.05 107.95 634.05 137.46C634.05 166.97 658.32 189.67 687.05 189.67C695.339 189.645 703.504 187.658 710.877 183.871C718.251 180.083 724.622 174.603 729.47 167.88L714.47 153.38C707.99 163.22 698.12 169.22 687.05 169.22C669.86 169.22 655.86 156.04 655.86 137.46C655.86 118.88 669.86 105.74 687.05 105.74V105.7ZM764.4 147.58V87.5H743.09V188.69H751.34L813.5 127.39V187.5H834.81V86.31H826.56L764.4 147.58ZM900.53 169.22C883.33 169.22 869.34 156.04 869.34 137.46C869.34 118.88 883.34 105.7 900.53 105.7C911.6 105.7 921.47 111.7 927.94 121.54L942.94 107.04C938.091 100.318 931.719 94.8389 924.346 91.0516C916.973 87.2643 908.809 85.2763 900.52 85.25C871.73 85.25 847.46 107.95 847.46 137.46C847.46 166.97 871.73 189.67 900.52 189.67C908.815 189.658 916.99 187.68 924.374 183.9C931.758 180.119 938.141 174.643 943 167.92L928 153.42C921.47 163.26 911.6 169.26 900.53 169.26V169.22Z" fill="white"/>
</svg>
